<svg xmlns="http://www.w3.org/2000/svg" viewBox="0 0 64 64" role="img" aria-label="Cloud Journey icon">
  <defs>
    <linearGradient id="bg" x1="0" y1="0" x2="1" y2="1">
      <stop offset="0" stop-color="#0b2f52" />
      <stop offset="1" stop-color="#1bb6ff" />
    </linearGradient>
    <linearGradient id="cloud" x1="0" y1="0" x2="1" y2="1">
      <stop offset="0" stop-color="#d8f3ff" />
      <stop offset="1" stop-color="#ffffff" />
    </linearGradient>
  </defs>
  <rect x="4" y="4" width="56" height="56" rx="14" fill="url(#bg)" />
  <path
    d="M20 38c-4.4 0-8-3.4-8-7.6 0-3.7 2.8-6.8 6.5-7.5 1.4-4.8 5.9-8.2 11-8.2 5.9 0 10.8 4.6 11.4 10.4 3.7.4 6.6 3.4 6.6 7 0 3.9-3.3 7-7.3 7H20z"
    fill="url(#cloud)"
    opacity="0.95"
  />
  <path d="M18 43h28" stroke="#90e6ff" stroke-width="2.5" stroke-linecap="round" opacity="0.8" />
  <circle cx="24" cy="43" r="2" fill="#90e6ff" />
  <circle cx="32" cy="43" r="2" fill="#90e6ff" />
  <circle cx="40" cy="43" r="2" fill="#90e6ff" />
</svg>
